<svg width="205" height="41" viewBox="0 0 205 41" fill="none" xmlns="http://www.w3.org/2000/svg">
<path fill-rule="evenodd" clip-rule="evenodd" d="M150.307 6.64656C149.933 6.74384 148.56 7.95379 149.427 8.28048C149.427 8.28048 149.08 8.94111 149.004 9.08703C148.892 9.28923 148.764 9.48222 148.622 9.66417C147.887 10.5194 148.151 11.1592 147.853 11.632V11.6947C147.589 12.0221 147.214 11.1524 146.93 13.3148C146.924 13.3335 146.922 13.3534 146.924 13.373C146.926 13.3927 146.932 13.4117 146.941 13.4288C146.951 13.4459 146.965 13.4606 146.981 13.4722C146.997 13.4837 147.015 13.4917 147.034 13.4956C147.114 13.5182 147.195 13.5344 147.277 13.5442C147.145 13.8779 146.972 13.8015 146.715 14.6707C146.679 14.7895 146.649 14.9102 146.625 15.0322C146.618 15.1039 146.618 15.1761 146.625 15.2478C146.623 15.3245 146.637 15.4007 146.666 15.4718C146.695 15.5428 146.738 15.6071 146.793 15.6607C146.847 15.7142 146.913 15.7558 146.984 15.7829C147.056 15.81 147.132 15.8219 147.208 15.818C148.02 15.7553 147.541 16.1309 147.548 16.5132C147.557 16.7201 147.545 16.9274 147.513 17.132C147.479 17.1182 147.93 17.5562 147.597 17.6813C147.672 18.0014 147.764 18.3171 147.874 18.627C147.874 18.6756 147.756 18.7591 147.756 18.8426C147.752 18.9856 147.768 19.1285 147.805 19.2668C147.805 19.3295 147.86 19.3503 147.888 19.3989C148.241 19.9899 150.599 20.0942 150.564 20.574C150.548 20.5729 150.532 20.5771 150.518 20.5858C150.505 20.5946 150.494 20.6075 150.488 20.6227C150.453 20.7062 150.849 21.2206 150.918 21.3598C150.715 21.6613 150.638 22.0307 150.703 22.3887C150.738 22.653 151.015 22.82 150.703 23.0286L150.516 23.1745C150.516 23.1745 150.412 23.8697 150.482 23.8351C150.482 23.8351 150.558 23.7724 150.599 23.7378C152.312 21.4989 156.896 18.2657 156.84 18.2933C156.785 18.3209 157.735 17.3754 156.702 17.849C156.809 17.0788 157.086 16.3424 157.513 15.6936C161.396 10.1309 158.255 4.95768 150.266 6.65427L150.307 6.64656ZM155.121 2.6491L155.238 2.16246C157.153 2.02332 159.496 2.16245 161.431 2.12761L192.435 1.98052C194.134 1.98052 204.057 2.04319 204.841 1.87622C205.021 1.51468 205.063 1.61197 204.889 1.18098C204.39 1.00021 182.512 1.18098 180.015 1.21583C171.742 1.21583 163.372 1.16016 155.099 1.33415C153.851 -0.793898 151.098 -0.362439 151.132 2.53007L150.057 2.76649C149.974 2.80133 149.877 2.82215 149.738 2.86378C147.214 3.31581 144.128 5.53389 142.679 7.66849C141.274 9.61436 140.452 11.9217 140.309 14.3196C140.166 16.7176 140.708 19.1067 141.871 21.2066C143.035 23.3065 144.772 25.03 146.878 26.175C148.984 27.3199 151.372 27.8387 153.762 27.6705C156.152 27.5023 158.445 26.6541 160.371 25.2253C162.297 23.7966 163.776 21.8467 164.636 19.6044C165.495 17.3621 165.699 14.9205 165.224 12.5661C164.748 10.2117 163.612 8.04215 161.95 6.31215C161.666 6.02708 161.479 5.86011 161.187 5.57505C160.658 5.09471 160.081 4.66847 159.467 4.30266C158.147 3.48022 156.684 2.91634 155.154 2.64092L155.121 2.6491ZM151.347 4.60924C155.141 4.41444 157.041 4.94295 159.51 6.81352L160.204 7.44632C160.432 7.68275 160.661 7.87732 160.897 8.14157C162.284 9.75458 163.158 11.7474 163.405 13.863C163.653 15.9786 163.262 18.12 162.284 20.0109C161.992 20.5557 161.651 21.0723 161.264 21.5543C159.7 23.6218 157.423 25.03 154.878 25.5039C152.347 25.9862 149.727 25.5241 147.512 24.2047C145.297 22.8853 143.639 20.7996 142.851 18.3401C142.063 15.8806 142.198 13.217 143.232 10.8508C144.266 8.48451 146.127 6.57876 148.464 5.49226C149.418 5.13409 150.393 4.83681 151.384 4.60223L151.347 4.60924ZM176.784 6.45176H172.04L184.481 24.9545H189.287L201.921 6.58388H197.178L186.915 20.0593L176.784 6.45176ZM133.567 19.663H137.727V24.6693H131.75L113.859 24.5858C112.333 24.6176 110.841 24.1271 109.629 23.195C109.103 22.8295 108.672 22.3424 108.372 21.7749C108.073 21.2073 107.914 20.576 107.909 19.934L107.951 10.6791V6.08321H112.687V16.9861C112.708 17.3559 112.822 17.7144 113.02 18.0272C113.218 18.34 113.493 18.5968 113.817 18.7732C114.668 19.3073 115.658 19.5759 116.661 19.5449L129.143 19.6005L133.567 19.663ZM104.442 24.5303H99.6986L99.7472 12.9949H104.49V16.9861L104.442 24.5303ZM104.525 6.08321V10.9506H99.7819V6.08321H104.525ZM71.2392 24.3774H66.5027L66.5582 10.8114V5.94407H72.5287L90.4199 6.05538C91.9468 6.02184 93.4394 6.51253 94.6501 7.44609C95.1774 7.80947 95.6096 8.29495 95.91 8.86141C96.2105 9.42786 96.3703 10.0586 96.3759 10.7001L96.3344 19.9272V24.5238H91.5921L91.662 16.9168V13.3632C91.4596 12.6507 90.9866 12.0462 90.3446 11.6795C89.5135 11.1622 88.5483 10.9032 87.5706 10.9354L75.3031 10.8797H71.2252V19.4387L71.2392 24.3774ZM49.8875 13.0157L48.2232 10.7558H42.4393L45.9075 5.88864H50.7119L63.1457 24.3914H58.4031L53.0623 17.2643H43.5769L38.0293 24.3426H33.286L41.0523 13.0922H46.4267L49.8875 13.0157ZM25.2072 16.5827V13.0365C25.0037 12.321 24.5281 11.7142 23.8827 11.347C23.0508 10.8315 22.0861 10.5728 21.1087 10.6029L8.84123 10.5472L0.082793 10.5124V5.6452H6.06052L23.9517 5.75652C25.4784 5.72467 26.9704 6.21517 28.1819 7.14723C28.709 7.51253 29.1408 7.9994 29.4411 8.56689C29.7415 9.13437 29.9015 9.76588 29.9077 10.4083L29.8662 19.6283C29.8541 20.2698 29.6885 20.8989 29.3833 21.4628C29.0782 22.0267 28.6424 22.5088 28.1126 22.8686C26.8909 23.7849 25.3927 24.2536 23.868 24.1964L5.97679 24.1199H0L0.0555049 12.5775H4.79179V19.1066H8.77989L21.2622 19.1623C22.2407 19.1858 23.2048 18.9224 24.0361 18.4044C24.3717 18.228 24.6559 17.9675 24.8611 17.6483C25.0663 17.329 25.1856 16.9619 25.2072 16.5827Z" fill="#FFFAF8"/>
<path d="M193.698 39.9593L193.608 33.8125H194.377V40.7658H193.448L189.107 34.6116L189.197 40.7651H188.427V33.8125H189.363L193.698 39.9593ZM181.555 37.9776L180.064 34.5009L178.587 37.9776H181.555ZM177.395 40.7936H176.577L179.641 33.8398H180.57L183.628 40.7932H182.754L181.818 38.6029H178.316L177.395 40.7936ZM171.111 33.8398H171.888V38.5681C171.926 39.109 171.816 39.65 171.569 40.1326C171.363 40.4195 171.087 40.6493 170.769 40.8003C170.45 40.9513 170.098 41.0185 169.746 40.9957C169.48 41.0096 169.215 40.9701 168.964 40.8793C168.714 40.7885 168.485 40.6484 168.29 40.4672C168.118 40.2955 167.984 40.0901 167.896 39.8639C167.808 39.6377 167.767 39.3957 167.777 39.1529H168.553C168.563 39.4533 168.682 39.7398 168.886 39.9595C169.003 40.0743 169.142 40.1637 169.295 40.2223C169.447 40.2809 169.61 40.3075 169.774 40.3002C170.017 40.3265 170.262 40.2729 170.472 40.1475C170.683 40.0221 170.847 39.8318 170.94 39.605C171.07 39.1654 171.124 38.7066 171.099 38.2486L171.111 33.8398ZM162.63 40.7936H161.847V33.8398H162.63V40.7936ZM155.002 37.9776L153.505 34.5009L152.028 37.9776H155.002ZM150.842 40.7936H150.015L153.081 33.8398H154.017L157.069 40.7932H156.236L155.3 38.6029H151.791L150.842 40.7936ZM141.133 33.8398H142.534C143.173 33.8005 143.811 33.93 144.385 34.2154C144.634 34.3659 144.836 34.5829 144.968 34.8421C145.1 35.1013 145.158 35.3924 145.134 35.6826C145.15 35.9729 145.077 36.2612 144.926 36.5095C144.775 36.7577 144.553 36.9543 144.288 37.0733C144.661 37.1704 144.989 37.3909 145.221 37.6989C145.452 38.0068 145.573 38.3843 145.564 38.7699C145.592 39.0847 145.536 39.4013 145.404 39.688C145.271 39.9747 145.066 40.2215 144.808 40.4038C144.195 40.7304 143.504 40.8797 142.811 40.835H141.064L141.133 33.8398ZM141.882 34.5351V36.8799H142.346C142.816 36.9037 143.286 36.8425 143.733 36.6991C143.938 36.6244 144.113 36.4849 144.232 36.3018C144.351 36.1188 144.407 35.9019 144.392 35.684C144.392 34.9191 143.768 34.5367 142.526 34.5367L141.882 34.5351ZM141.882 37.5459V40.1819H142.971C144.219 40.1819 144.843 39.7439 144.843 38.8747C144.843 38.0054 144.219 37.5466 142.971 37.5466L141.882 37.5459ZM131.355 34.5566V40.8493H130.585V33.896H132.708C133.368 33.8555 134.027 33.9948 134.615 34.2991C134.986 34.5285 135.276 34.869 135.444 35.2725C135.611 35.676 135.648 36.1221 135.549 36.5479C135.45 36.9736 135.221 37.3574 134.892 37.6452C134.564 37.9329 134.154 38.11 133.72 38.1514L135.634 40.8771H134.705L132.36 37.5113H133.109C133.537 37.5283 133.958 37.3983 134.302 37.1428C134.46 37.0264 134.589 36.8733 134.676 36.6966C134.763 36.5198 134.806 36.3246 134.801 36.1276C134.808 35.8957 134.759 35.6656 134.658 35.4564C134.558 35.2472 134.41 35.0649 134.226 34.9247C133.987 34.7483 133.703 34.6424 133.407 34.6188C133.105 34.5871 132.801 34.5755 132.498 34.584L131.355 34.5566ZM121.647 36.9968H124.975V37.6921H121.647V40.1819H124.975V40.8771H120.759V33.9238H124.864V34.619H121.536L121.647 36.9968ZM114.712 34.5561H111.245V33.8609H115.489V34.5007L111.786 40.1679H115.564V40.8631H110.898V40.2083L114.712 34.5561ZM81.6272 39.9581L81.5369 33.8113H82.3066V40.7647H81.3779L77.0364 34.6116L77.1267 40.7651H76.3571V33.8125H77.2932L81.6272 39.9581ZM70.6424 40.7925H69.8658V33.8398H70.6424V40.7925ZM53.9024 36.9402H57.2375V37.6355H53.9096V40.1248H57.2393V40.8201H53.1346V33.8681H57.2393V34.5634H53.9096L53.9024 36.9402ZM41.4618 33.8113H43.7008C44.6438 33.7547 45.5805 33.998 46.3775 34.5066C46.825 34.817 47.1894 35.2331 47.4385 35.7182C47.6877 36.2033 47.8139 36.7424 47.806 37.288C47.8313 37.8728 47.6976 38.4534 47.4191 38.9679C47.1406 39.4823 46.7278 39.9111 46.225 40.2083C45.8038 40.473 45.3308 40.6437 44.838 40.709C44.3414 40.7743 43.8407 40.8022 43.34 40.7925H41.4469L41.4618 33.8113ZM42.2247 34.5066V40.1749H43.8405C44.6884 40.2297 45.525 39.9558 46.1774 39.41C46.4469 39.1364 46.6569 38.8098 46.7941 38.4508C46.9313 38.0917 46.9929 37.7081 46.9748 37.324C46.9898 36.8906 46.8999 36.4599 46.7127 36.0689C46.5255 35.678 46.2466 35.3383 45.8998 35.079C45.5883 34.8454 45.2278 34.6861 44.8457 34.6132C44.4514 34.5494 44.0522 34.5214 43.653 34.5297L42.2247 34.5066ZM34.5967 37.9832L33.1057 34.5066L31.6287 37.9832H34.5967ZM30.436 40.7993H29.5691L32.6344 33.8473H33.5635L36.6225 40.8007H35.7903L34.8542 38.6104H31.3377L30.436 40.7993ZM101.432 36.5369L99.1788 31.2455L96.946 36.5369H101.432ZM95.1082 40.7993H93.8669L98.4992 30.2441H99.8862L104.504 40.7993H103.215L101.828 37.4896H96.5159L95.1082 40.7993ZM10.7488 40.7993V30.2593H12.4746L16.6353 39.4446L20.7475 30.2593H22.4733V40.8145H21.3499V31.4901L17.1892 40.8145H16.1283L11.9259 31.4901V40.8145L10.7488 40.7993Z" fill="#FFFAF8"/>
</svg>
