<svg width="135" height="27" viewBox="0 0 135 27" fill="none" xmlns="http://www.w3.org/2000/svg">
<g clip-path="url(#clip0_540_1555)">
<path fill-rule="evenodd" clip-rule="evenodd" d="M98.9828 4.377C98.7361 4.44106 97.832 5.23786 98.4029 5.453C98.4029 5.453 98.1745 5.88805 98.1243 5.98414C98.0507 6.1173 97.9668 6.24439 97.8732 6.36421C97.3891 6.92739 97.5626 7.34873 97.3663 7.66012V7.70139C97.1928 7.91699 96.9461 7.34426 96.7589 8.7683C96.7548 8.78062 96.7533 8.79368 96.7546 8.80662C96.7558 8.81955 96.7599 8.83207 96.7663 8.84333C96.7728 8.85458 96.7816 8.86433 96.7921 8.87192C96.8027 8.87951 96.8147 8.88477 96.8274 8.88734C96.8798 8.90222 96.9332 8.91293 96.9873 8.91938C96.9005 9.13913 96.7864 9.08877 96.6174 9.66119C96.5934 9.73942 96.5736 9.8189 96.5582 9.89928C96.5536 9.9465 96.5536 9.99404 96.5582 10.0413C96.5568 10.0917 96.5659 10.1419 96.5849 10.1887C96.6039 10.2355 96.6323 10.2779 96.6683 10.3131C96.7044 10.3484 96.7473 10.3758 96.7944 10.3936C96.8415 10.4114 96.8918 10.4193 96.9421 10.4167C97.4764 10.3754 97.1613 10.6228 97.1659 10.8746C97.1716 11.0108 97.164 11.1473 97.143 11.282C97.1201 11.273 97.417 11.5614 97.1978 11.6438C97.2472 11.8546 97.3082 12.0625 97.3804 12.2666C97.3804 12.2986 97.3027 12.3536 97.3027 12.4085C97.2998 12.5027 97.3106 12.5968 97.3347 12.6879C97.3347 12.7292 97.3712 12.7429 97.3895 12.7749C97.6223 13.1641 99.1751 13.2328 99.1522 13.5488C99.1415 13.548 99.1309 13.5507 99.1218 13.5565C99.1128 13.5623 99.1059 13.5708 99.102 13.5808C99.0791 13.6358 99.3394 13.9746 99.385 14.0662C99.2512 14.2648 99.2004 14.5081 99.2434 14.7438C99.2663 14.9178 99.4489 15.0278 99.2434 15.1651L99.1206 15.2612C99.1206 15.2612 99.0521 15.7191 99.0977 15.6963C99.0977 15.6963 99.1479 15.655 99.1752 15.6322C100.303 14.1578 103.322 12.0286 103.285 12.0468C103.248 12.065 103.874 11.4424 103.194 11.7542C103.264 11.247 103.447 10.7621 103.728 10.3348C106.285 6.6716 104.217 3.26481 98.9559 4.38208L98.9828 4.377ZM102.153 1.74453L102.23 1.42406C103.491 1.33243 105.034 1.42405 106.308 1.40111L126.725 1.30424C127.844 1.30424 134.379 1.34551 134.895 1.23556C135.014 0.997473 135.041 1.06154 134.927 0.777717C134.598 0.658675 120.191 0.77772 118.547 0.800666C113.099 0.800666 107.587 0.764011 102.138 0.878587C101.316 -0.522811 99.5035 -0.238679 99.5262 1.66614L98.8183 1.82184C98.7635 1.84478 98.6996 1.85849 98.6082 1.8859C96.9459 2.18358 94.9137 3.64427 93.9593 5.04998C93.0342 6.33141 92.4927 7.85085 92.3985 9.42999C92.3043 11.0091 92.6613 12.5825 93.4276 13.9653C94.1938 15.3482 95.3376 16.4832 96.7245 17.2372C98.1115 17.9911 99.6842 18.3328 101.258 18.222C102.832 18.1113 104.342 17.5527 105.61 16.6118C106.878 15.6709 107.853 14.3868 108.419 12.9102C108.985 11.4336 109.119 9.82569 108.806 8.27522C108.493 6.72476 107.745 5.29605 106.65 4.15678C106.463 3.96906 106.34 3.8591 106.148 3.67137C105.799 3.35505 105.42 3.07436 105.015 2.83346C104.146 2.29185 103.182 1.92051 102.175 1.73914L102.153 1.74453ZM99.6678 3.03535C102.166 2.90707 103.417 3.25511 105.043 4.48695L105.5 4.90368C105.651 5.05937 105.801 5.1875 105.957 5.36152C106.87 6.42375 107.446 7.7361 107.608 9.12931C107.771 10.5225 107.514 11.9327 106.87 13.1779C106.678 13.5367 106.453 13.8769 106.199 14.1943C105.168 15.5558 103.669 16.4832 101.993 16.7952C100.326 17.1128 98.6007 16.8086 97.142 15.9397C95.6833 15.0708 94.5917 13.6973 94.0726 12.0776C93.5535 10.458 93.6427 8.7039 94.3235 7.14563C95.0043 5.58736 96.2297 4.33235 97.769 3.61686C98.3969 3.38098 99.039 3.18522 99.6916 3.03073L99.6678 3.03535ZM116.418 4.24872H113.295L121.487 16.4335H124.652L132.973 4.33573H129.849L123.09 13.2098L116.418 4.24872ZM87.959 12.9488H90.6984V16.2456H86.7625L74.9805 16.1906C73.9751 16.2116 72.9925 15.8886 72.1947 15.2748C71.8481 15.0341 71.5643 14.7133 71.3672 14.3396C71.1701 13.9658 71.0655 13.55 71.0622 13.1273L71.0895 7.03257V4.00601H74.2085V11.1859C74.2221 11.4295 74.2976 11.6656 74.4279 11.8716C74.5582 12.0776 74.739 12.2467 74.953 12.3628C75.5131 12.7146 76.1648 12.8915 76.8253 12.871L85.0454 12.9077L87.959 12.9488ZM68.7788 16.1541H65.6552L65.6871 8.55763H68.8108V11.1859L68.7788 16.1541ZM68.8337 4.00601V7.21136H65.71V4.00601H68.8337ZM46.9136 16.0534H43.7945L43.831 7.11973V3.91438H47.7628L59.5448 3.98769C60.5504 3.9656 61.5332 4.28874 62.3305 4.90353C62.6778 5.14282 62.9624 5.46253 63.1603 5.83556C63.3581 6.20859 63.4633 6.62395 63.4671 7.04643L63.4397 13.1228V16.1498H60.3167L60.3628 11.1404V8.80018C60.2295 8.33094 59.918 7.93284 59.4952 7.69138C58.9479 7.3507 58.3123 7.18019 57.6684 7.20135L49.5898 7.1647H46.9044V12.8011L46.9136 16.0534ZM32.8527 8.57133L31.7567 7.08308H27.9478L30.2318 3.87789H33.3956L41.5837 16.0627H38.4606L34.9435 11.3692H28.697L25.0437 16.0305H21.92L27.0344 8.62169H30.5737L32.8527 8.57133ZM16.5998 10.9203V8.58504C16.4659 8.11382 16.1526 7.71423 15.7276 7.4724C15.1798 7.13297 14.5445 6.96256 13.9009 6.98237L5.82227 6.94571L0.0545222 6.92277V3.71757H3.99107L15.7731 3.79088C16.7785 3.76991 17.761 4.09292 18.5588 4.70671C18.9059 4.94728 19.1903 5.2679 19.3881 5.64161C19.5858 6.01532 19.6912 6.43119 19.6953 6.85424L19.668 12.926C19.66 13.3484 19.551 13.7627 19.35 14.134C19.149 14.5054 18.8621 14.8229 18.5132 15.0598C17.7086 15.6633 16.722 15.9719 15.7179 15.9342L3.93594 15.8839H0L0.036552 8.28274H3.15557V12.5824H5.78188L14.0019 12.6191C14.6463 12.6345 15.2812 12.4611 15.8287 12.12C16.0496 12.0038 16.2368 11.8323 16.372 11.622C16.5071 11.4118 16.5856 11.17 16.5998 10.9203Z" fill="#1B1B1B"/>
<path d="M127.557 26.3148L127.497 22.2669H128.004V26.8459H127.392L124.533 22.7931L124.593 26.8454H124.086V22.2669H124.702L127.557 26.3148ZM119.56 25.0098L118.579 22.7202L117.606 25.0098H119.56ZM116.821 26.8642H116.282L118.3 22.2849H118.912L120.926 26.8639H120.35L119.734 25.4216H117.427L116.821 26.8642ZM112.683 22.2849H113.194V25.3986C113.219 25.7548 113.146 26.1111 112.984 26.4289C112.848 26.6179 112.667 26.7692 112.457 26.8686C112.247 26.968 112.015 27.0123 111.784 26.9973C111.609 27.0065 111.434 26.9804 111.269 26.9206C111.104 26.8609 110.953 26.7686 110.825 26.6492C110.712 26.5362 110.623 26.4009 110.565 26.252C110.507 26.103 110.48 25.9436 110.487 25.7838H110.998C111.005 25.9815 111.083 26.1702 111.217 26.3149C111.294 26.3905 111.386 26.4494 111.486 26.488C111.587 26.5266 111.694 26.5441 111.802 26.5393C111.962 26.5566 112.123 26.5213 112.262 26.4387C112.4 26.3562 112.508 26.2308 112.57 26.0815C112.656 25.792 112.691 25.4898 112.675 25.1882L112.683 22.2849ZM107.098 26.8642H106.582V22.2849H107.098V26.8642ZM102.074 25.0098L101.088 22.7202L100.115 25.0098H102.074ZM99.3343 26.8642H98.7902L100.809 22.2849H101.426L103.435 26.8639H102.887L102.271 25.4216H99.9599L99.3343 26.8642ZM92.9409 22.2849H93.8633C94.2843 22.259 94.7048 22.3443 95.0826 22.5322C95.2464 22.6313 95.3793 22.7742 95.4664 22.9449C95.5535 23.1156 95.5914 23.3073 95.5758 23.4984C95.5861 23.6896 95.5383 23.8795 95.4389 24.0429C95.3395 24.2064 95.193 24.3359 95.0187 24.4142C95.2639 24.4782 95.4803 24.6234 95.6329 24.8262C95.7854 25.029 95.8651 25.2776 95.859 25.5315C95.8771 25.7388 95.8406 25.9473 95.7533 26.1361C95.6659 26.3249 95.5308 26.4874 95.3612 26.6075C94.9576 26.8226 94.5022 26.9209 94.0461 26.8915H92.8953L92.9409 22.2849ZM93.4341 22.7427V24.2869H93.74C94.0491 24.3026 94.3585 24.2622 94.6534 24.1679C94.7881 24.1186 94.9033 24.0268 94.9816 23.9062C95.0598 23.7856 95.0969 23.6429 95.0872 23.4993C95.0872 22.9956 94.6762 22.7438 93.8586 22.7438L93.4341 22.7427ZM93.4341 24.7255V26.4614H94.151C94.973 26.4614 95.384 26.1729 95.384 25.6005C95.384 25.0281 94.973 24.7259 94.151 24.7259L93.4341 24.7255ZM86.5018 22.7569V26.9009H85.995V22.3219H87.3926C87.8275 22.2952 88.2614 22.3869 88.6485 22.5874C88.8929 22.7384 89.0837 22.9626 89.1942 23.2284C89.3046 23.4941 89.3289 23.7879 89.2638 24.0682C89.1987 24.3486 89.0474 24.6014 88.8313 24.7908C88.6152 24.9803 88.3451 25.0969 88.0593 25.1242L89.3198 26.9192H88.7079L87.1638 24.7027H87.6569C87.9387 24.7139 88.2158 24.6282 88.4424 24.46C88.5468 24.3833 88.6312 24.2825 88.6885 24.1661C88.7458 24.0497 88.7741 23.9212 88.7712 23.7915C88.7753 23.6387 88.7431 23.4872 88.6772 23.3494C88.6113 23.2117 88.5135 23.0916 88.3921 22.9993C88.2347 22.8832 88.048 22.8134 87.8532 22.7979C87.6543 22.777 87.4542 22.7693 87.2542 22.7749L86.5018 22.7569ZM80.1085 24.3639H82.3005V24.8217H80.1085V26.4614H82.3005V26.9192H79.524V22.3402H82.2271V22.798H80.0354L80.1085 24.3639ZM75.5418 22.7566H73.2584V22.2988H76.0537V22.7201L73.6148 26.4521H76.1028V26.91H73.0302V26.4788L75.5418 22.7566ZM53.7542 26.314L53.6947 22.2661H54.2015V26.8451H53.59L50.731 22.7931L50.7904 26.8454H50.2836V22.2669H50.9001L53.7542 26.314ZM46.5203 26.8635H46.0088V22.2849H46.5203V26.8635ZM35.4964 24.3266H37.6926V24.7845H35.5011V26.4238H37.6939V26.8816H34.9908V22.3035H37.6939V22.7614H35.5011L35.4964 24.3266ZM27.3038 22.2661H28.7782C29.3992 22.2288 30.0161 22.3891 30.5409 22.7239C30.8356 22.9284 31.0756 23.2024 31.2397 23.5219C31.4037 23.8413 31.4868 24.1963 31.4816 24.5556C31.4983 24.9407 31.4103 25.3231 31.2269 25.6619C31.0435 26.0007 30.7716 26.283 30.4405 26.4788C30.1631 26.6531 29.8516 26.7655 29.5271 26.8085C29.2001 26.8515 28.8704 26.8699 28.5406 26.8635H27.294L27.3038 22.2661ZM27.8062 22.7239V26.4567H28.8702C29.4286 26.4928 29.9795 26.3125 30.4091 25.953C30.5866 25.7729 30.7249 25.5578 30.8153 25.3214C30.9057 25.0849 30.9462 24.8323 30.9343 24.5793C30.9442 24.2939 30.885 24.0103 30.7617 23.7528C30.6384 23.4954 30.4547 23.2717 30.2264 23.1009C30.0212 22.9471 29.7838 22.8422 29.5322 22.7942C29.2726 22.7521 29.0097 22.7337 28.7467 22.7392L27.8062 22.7239ZM22.7829 25.0135L21.801 22.7239L20.8283 25.0135H22.7829ZM20.0429 26.8679H19.472L21.4906 22.2898H22.1025L24.1169 26.8688H23.5689L22.9524 25.4265H20.6367L20.0429 26.8679ZM66.7966 24.061L65.3125 20.5764L63.8421 24.061H66.7966ZM62.6319 26.8679H61.8145L64.865 19.917H65.7784L68.8194 26.8679H67.9702L67.0568 24.6884H63.5589L62.6319 26.8679ZM7.07812 26.8679V19.927H8.21466L10.9546 25.9758L13.6626 19.927H14.7992V26.8779H14.0594V20.7375L11.3194 26.8779H10.6207L7.85327 20.7375V26.8779L7.07812 26.8679Z" fill="#1B1B1B"/>
</g>
<defs>
<clipPath id="clip0_540_1555">
<rect width="135" height="27" fill="white"/>
</clipPath>
</defs>
</svg>
