<svg width="18" height="18" viewBox="0 0 18 18" fill="none" xmlns="http://www.w3.org/2000/svg">
<path d="M11.5 17.5V17V13.8V10.5V10.0004L11.9996 10L14.2906 9.99813L14.3177 9.52928L14.349 8.81191L12.0004 8.81375L11.5 8.81414V8.31375V6.579L11.5 6.55692C11.5 6.30478 11.4999 6.04158 11.5323 5.80842C11.5667 5.56072 11.6437 5.29192 11.8394 5.06162C12.0372 4.82896 12.3077 4.69194 12.6206 4.61232C12.9276 4.53418 13.3061 4.50335 13.764 4.50449M11.5 17.5L13.7633 5.00449M11.5 17.5H10.5V17V10.5V10H10H7.76525M11.5 17.5L7.76525 10M13.764 4.50449C13.7641 4.50449 13.7643 4.50449 13.7645 4.50449L13.7633 5.00449M13.764 4.50449H13.7633V5.00449M13.764 4.50449H14.3714M13.7633 5.00449H14.3714V4.50449M14.3714 4.50449V3.5M14.3714 4.50449H14.8714M14.8714 4.50449V3.5H14.8692H14.867H14.8649H14.8627H14.8605H14.8583H14.8561H14.8539H14.8517H14.8495H14.8473H14.8451H14.8428H14.8406H14.8384H14.8362H14.8339H14.8317H14.8295H14.8272H14.825H14.8228H14.8205H14.8182H14.816H14.8137H14.8115H14.8092H14.8069H14.8047H14.8024H14.8001H14.7978H14.7955H14.7932H14.7909H14.7886H14.7863H14.784H14.7817H14.7794H14.7771H14.7748H14.7725H14.7701H14.7678H14.7655H14.7631H14.7608H14.7584H14.7561H14.7537H14.7514H14.749H14.7466H14.7443H14.7419H14.7395H14.7371H14.7347H14.7323H14.7299H14.7275H14.7251H14.7227H14.7203H14.7179H14.7155H14.7131H14.7106H14.7082H14.7058H14.7033H14.7009H14.6984H14.696H14.6935H14.6911H14.6886H14.6861H14.6837H14.6812H14.6787H14.6762H14.6737H14.6712H14.6687H14.6662H14.6637H14.6612H14.6587H14.6561H14.6536H14.6511H14.6485H14.646H14.6435H14.6409H14.6384H14.6358H14.6332H14.6307H14.6281H14.6255H14.6229H14.6203H14.6177H14.6151H14.6125H14.6099H14.6073H14.6047H14.6021H14.5995H14.5968H14.5942H14.5915H14.5889H14.5862H14.5836H14.5809H14.5783H14.5756H14.5729H14.5702H14.5675H14.5649H14.5622H14.5595H14.5568H14.554H14.5513H14.5486H14.5459H14.5431H14.5404H14.5377H14.5349H14.5322H14.5294H14.5266H14.5239H14.5211H14.5183H14.5155H14.5127H14.5099H14.5071H14.5043H14.5015H14.4987H14.4959H14.493H14.4902H14.4874H14.4845H14.4817H14.4788H14.476H14.4731H14.4702H14.4673H14.4645H14.4616H14.4587H14.4558H14.4529H14.45H14.447H14.4441H14.4412H14.4382H14.4353H14.4324H14.4294H14.4264H14.4235H14.4205H14.4175H14.4145H14.4116H14.4086H14.4056H14.4026H14.3995H14.3965H14.3935H14.3905H14.3874H14.3844H14.3813H14.3783H14.3752H14.3722H14.3714M14.8714 4.50449L14.8495 8.81152L14.817 9.55462L14.7626 10.4978L12 10.5V13.8V16.5V17H12.5H16.5H17V16.5V9V1.5V1H16.5H1.5H1V1.5V9V16.5V17H1.5H9.5H10V16.5V11V10.5H9.5H7.76525V10M14.8714 4.50449L7.76525 10M14.3714 3.5V3H13C10.5693 3 10 4.5 10 6.309V7.8115V8.3115H9.5H7.76525V8.8115M14.3714 3.5H14.3691H14.366H14.3629H14.3598H14.3567H14.3536H14.3505H14.3474H14.3443H14.3411H14.338H14.3349H14.3317H14.3286H14.3254H14.3222H14.3191H14.3159H14.3127H14.3095H14.3063H14.3031H14.2999H14.2967H14.2934H14.2902H14.287H14.2837H14.2805H14.2772H14.2739H14.2707H14.2674H14.2641H14.2608H14.2575H14.2542H14.2509H14.2476H14.2443H14.2409H14.2376H14.2342H14.2309H14.2275H14.2242H14.2208H14.2174H14.214H14.2106H14.2072H14.2038H14.2004H14.197H14.1936H14.1901H14.1867H14.1832H14.1798H14.1763H14.1728H14.1694H14.1659H14.1624H14.1589H14.1554H14.1519H14.1483H14.1448H14.1413H14.1377H14.1342H14.1306H14.1271H14.1235H14.1199H14.1163H14.1127H14.1091H14.1055H14.1019H14.0983H14.0946H14.091H14.0874H14.0837H14.08H14.0764H14.0727H14.069H14.0653H14.0616H14.0579H14.0542H14.0505H14.0468H14.043H14.0393H14.0355H14.0318H14.028H14.0242H14.0204H14.0166H14.0128H14.009H14.0052H14.0014H13.9976H13.9937H13.9899H13.986H13.9822H13.9783H13.9744H13.9705H13.9666H13.9627H13.9588H13.9549H13.951H13.947H13.9431H13.9392H13.9352H13.9312H13.9273H13.9233H13.9193H13.9153H13.9113H13.9073H13.9032H13.8992H13.8952H13.8911H13.8871H13.883H13.8789H13.8748H13.8707H13.8666H13.8625H13.8584H13.8543H13.8502H13.846H13.8419H13.8377H13.8336H13.8294H13.8252H13.821H13.8168H13.8126H13.8084H13.8041H13.7999H13.7957H13.7914H13.7872H13.7829H13.7786H13.7743H13.77H13.7657H13.7614H13.7571H13.7528H13.7484H13.7441H13.7397H13.7353H13.731H13.7266H13.7222H13.7178H13.7134H13.709H13.7045H13.7001H13.6956H13.6912H13.6867H13.6822H13.6778H13.6733H13.6688H13.6643H13.6597H13.6552H13.6507H13.6461H13.6416H13.637H13.6324H13.6278H13.6232H13.6186H13.614H13.6094H13.6048H13.6001H13.5955H13.5908H13.5862H13.5815H13.5768H13.5721H13.5674H13.5627H13.5579H13.5532H13.5485H13.5437H13.539H13.5342H13.5294H13.5246H13.5198H13.515H13.5102H13.5053H13.5005H13.4957H13.4908H13.4859H13.481H13.4762H13.4713H13.4663H13.4614H13.4565H13.4516H13.4466H13.4417H13.4367H13.4317H13.4267H13.4217H13.4167H13.4117H13.4067H13.4016H13.3966H13.3915H13.3865H13.3814H13.3763H13.3712H13.3661H13.361H13.3558H13.3507H13.3456H13.3404H13.3352H13.3301H13.3249H13.3197H13.3145H13.3092H13.304H13.2988H13.2935H13.2883H13.283H13.2777H13.2724H13.2671H13.2618H13.2565H13.2511H13.2458H13.2404H13.2351H13.2297H13.2243H13.2189H13.2135H13.2081H13.2026H13.1972H13.1918H13.1863H13.1808H13.1753H13.1698H13.1643H13.1588H13.1533H13.1478H13.1422H13.1367H13.1311H13.1255H13.1199H13.1143H13.1087H13.1031H13.0975H13.0918H13.0862H13.0805H13.0748H13.0691H13.0634H13.0577H13.052H13.0463H13.0405H13.0348H13.029H13.0232H13.0174H13.0116H13.0058H13C11.8936 3.5 11.3159 3.83506 10.99 4.27412C10.6409 4.74449 10.5 5.43836 10.5 6.309V8.3115V8.8115H10H7.76525M7.76525 8.8115H7.26525V10H7.76525M7.76525 8.8115V10M14.3709 8.31189L12.5 8.31336V8.31375H12L11.9996 7.81375L12 7.81375L14.3709 8.31189Z" fill="#FFFAF8" stroke="#FFFAF8"/>
</svg>
