<svg width="26" height="26" viewBox="0 0 26 26" fill="none" xmlns="http://www.w3.org/2000/svg">
<path d="M24.96 0H1.04C0.46475 0 0 0.46475 0 1.04V24.96C0 25.5352 0.46475 26 1.04 26H24.96C25.5352 26 26 25.5352 26 24.96V1.04C26 0.46475 25.5352 0 24.96 0ZM24.5556 24.5556H17.3333V19.9333V15.1667L21.3238 15.1634L21.4024 13.8011L21.4809 12.0055L17.3333 12.0087V9.503C17.3333 7.94444 17.3333 7.22222 19.8803 7.2287H21.4809V4.33333C20.9444 4.33333 20.2143 4.33333 18.7778 4.33333C15.2668 4.33333 14.4444 6.5 14.4444 9.113V12.0055H10.4942V15.1667H14.4444V24.5556H1.44444V13V1.44444H24.5556V13V24.5556Z" fill="#1B1B1B"/>
</svg>
