<svg width="22" height="22" viewBox="0 0 22 22" fill="none" xmlns="http://www.w3.org/2000/svg">
<path d="M15.3542 1.24209H15.5833C15.4573 1.24209 15.3542 1.13944 15.3542 1.01398V1.24209H6.64583V1.01398C6.64583 1.13944 6.54271 1.24209 6.41667 1.24209H6.64583V3.29508H5.5V1.39416C5.5 0.387628 6.32214 0.00012207 7.33333 0.00012207L14.4578 0.0508132C15.469 0.0508132 16.4948 0.235554 16.4948 1.24209V3.29508H15.3542V1.24209ZM0.916666 3.29508H21.0833C21.5904 3.29508 22 3.70283 22 4.20752L22 4.28353C22 4.40899 21.8969 4.51164 21.7708 4.51164H20.0406L19.3331 20.2608C19.2872 21.2331 18.4794 22.0001 17.5026 22.0001H4.4974C3.51771 22.0001 2.71276 21.236 2.66693 20.2608L1.95938 4.51164H0.229166C0.103125 4.51164 0 4.40899 0 4.28353V4.20752C0 3.70283 0.409636 3.29508 0.916666 3.29508ZM3.8652 20.7328H18.1245L18.8177 4.51164H3.17197L3.8652 20.7328Z" fill="#1B1B1B"/>
</svg>
